<?xml version="1.0" standalone="no"?>
<!DOCTYPE svg PUBLIC "-//W3C//DTD SVG 20010904//EN"
 "http://www.w3.org/TR/2001/REC-SVG-20010904/DTD/svg10.dtd">
<svg version="1.0" xmlns="http://www.w3.org/2000/svg"
 width="1242.000000pt" height="591.000000pt" viewBox="0 0 1242.000000 591.000000"
 preserveAspectRatio="xMidYMid meet">

<g transform="translate(0.000000,591.000000) scale(0.100000,-0.100000)"
fill="#000000" stroke="none">
<path d="M4345 5060 c-614 -22 -1461 -147 -2105 -312 -301 -77 -349 -88 -402
-94 l-58 -7 1 -46 c0 -25 4 -64 8 -86 l8 -40 13 48 c7 26 17 47 23 47 6 0 31
-7 54 -16 37 -14 41 -19 31 -32 -12 -13 -10 -14 11 -3 19 11 33 10 78 -4 47
-15 83 -17 234 -13 205 6 194 13 136 -85 l-32 -55 -145 -36 c-198 -50 -322
-100 -525 -212 -102 -56 -111 -62 -104 -69 4 -3 138 -10 299 -15 161 -5 295
-11 298 -14 15 -16 -30 -17 -303 -6 -235 10 -304 10 -333 1 -21 -7 -70 -11
-110 -9 -40 1 -72 -1 -72 -6 0 -5 -3 -7 -6 -3 -7 7 -33 -12 -169 -119 -104
-82 -175 -156 -175 -181 0 -10 13 -41 28 -69 20 -35 26 -56 20 -70 -4 -10 -14
-125 -21 -256 -13 -210 -16 -240 -35 -270 -46 -72 -47 -74 -32 -161 7 -45 13
-98 13 -117 0 -19 3 -37 7 -40 3 -3 15 -45 25 -93 15 -75 16 -94 5 -130 -7
-23 -13 -46 -15 -52 -1 -5 -6 37 -10 95 -12 148 -14 158 -25 115 -4 -16 -8
-102 -9 -191 -1 -147 1 -167 24 -234 25 -73 86 -181 145 -255 33 -42 127 -95
168 -95 12 0 24 -6 26 -12 2 -7 15 -62 30 -123 25 -106 89 -251 137 -315 11
-14 30 -38 42 -54 28 -38 149 -156 159 -156 4 0 8 -5 8 -11 0 -5 -6 -7 -12 -4
-7 4 -5 0 4 -8 10 -8 18 -18 18 -24 0 -28 333 -46 1040 -57 411 -7 891 -31
1395 -71 105 -9 276 -20 380 -25 178 -9 283 -16 600 -41 72 -5 209 -14 305
-19 189 -10 410 -27 450 -35 14 -2 113 -9 220 -15 347 -19 836 -64 855 -80 9
-7 110 -21 470 -62 161 -19 2158 -18 2450 0 211 14 337 26 387 36 15 4 88 10
161 15 88 6 145 15 165 25 17 9 42 16 55 16 14 0 43 7 66 15 23 8 42 14 44 14
1 -1 21 4 44 10 40 11 68 31 42 31 -9 0 -9 3 0 14 10 12 8 16 -11 21 -13 4
-41 15 -63 25 -22 11 -130 33 -240 50 -110 17 -249 40 -310 51 -60 10 -149 22
-197 25 -49 4 -88 10 -88 13 0 4 21 13 48 21 140 40 291 143 395 269 l36 43
183 19 c333 34 629 81 665 104 13 9 23 22 23 29 0 8 36 27 85 46 47 17 108 47
136 66 28 19 55 34 60 34 4 0 14 18 20 39 11 38 9 47 -60 213 -40 95 -72 180
-70 188 7 48 5 358 -3 373 -5 9 -15 17 -23 17 -21 0 -19 11 10 44 25 29 34 53
15 41 -6 -3 -7 1 -4 9 3 8 -4 29 -15 45 -30 41 -26 58 14 71 42 14 49 24 33
42 -18 19 -51 68 -68 101 -8 16 -19 26 -27 23 -7 -3 -13 -1 -13 5 0 6 -14 22
-30 36 -17 13 -28 29 -24 34 3 5 -3 9 -13 9 -15 0 -16 2 -3 10 11 7 7 10 -18
10 -20 0 -31 4 -27 10 3 6 -1 10 -9 10 -9 0 -21 9 -28 20 -7 11 -18 20 -25 20
-7 0 -33 15 -59 33 -25 17 -60 40 -78 51 -17 10 -33 21 -36 25 -3 4 -36 23
-75 41 -38 19 -92 46 -118 62 -26 15 -51 27 -55 26 -4 -1 -28 8 -54 20 -26 12
-52 22 -57 22 -6 0 -11 4 -11 10 0 5 -16 12 -35 16 -19 3 -35 10 -35 16 0 5
-4 6 -10 3 -5 -3 -22 1 -37 9 -66 33 -367 136 -400 136 -12 0 -24 4 -28 9 -3
5 -31 15 -63 21 -31 6 -68 15 -82 21 -28 10 -101 27 -307 69 -142 29 -158 32
-308 50 -44 5 -96 14 -115 20 -19 5 -53 10 -75 10 -27 0 -46 6 -57 19 -13 15
-36 20 -124 25 -128 8 -172 20 -199 52 -17 20 -30 24 -85 25 -36 1 -85 6 -110
13 -54 13 -153 69 -142 81 4 5 1 5 -5 1 -7 -4 -18 -2 -25 4 -48 40 -63 50 -74
50 -7 0 -18 9 -24 20 -6 11 -15 20 -21 20 -6 0 -7 -5 -3 -12 4 -7 3 -8 -5 -4
-6 4 -9 11 -6 16 3 4 -7 11 -21 14 -14 4 -39 16 -54 28 -16 12 -33 17 -41 13
-8 -5 -10 -4 -5 3 4 7 1 12 -8 12 -9 0 -16 5 -16 10 0 9 -41 31 -142 75 -21 9
-38 19 -38 23 0 5 -17 14 -37 21 -47 17 -65 30 -56 44 3 5 2 8 -3 5 -5 -4 -34
7 -64 23 -30 16 -85 43 -122 60 -37 18 -65 35 -63 40 6 9 -31 22 -44 15 -5 -3
-19 2 -32 12 -49 37 -100 61 -116 55 -12 -5 -14 -3 -8 7 5 9 4 11 -4 6 -6 -4
-17 -3 -24 2 -17 13 -200 92 -214 92 -12 0 -23 5 -116 45 -21 9 -45 14 -52 11
-8 -3 -21 1 -29 9 -8 8 -23 15 -33 15 -11 0 -24 5 -31 12 -7 7 -12 9 -12 5 0
-4 -24 2 -52 12 -96 33 -123 40 -178 47 -40 5 -49 9 -35 15 17 6 15 8 -10 8
-16 1 -68 10 -115 20 -47 11 -107 25 -135 31 -27 6 -75 15 -107 19 -31 5 -60
11 -65 14 -9 6 -139 24 -479 67 -83 11 -216 24 -295 31 -79 6 -160 13 -179 14
-366 30 -568 36 -885 25z m490 -65 c371 -44 646 -151 1035 -403 137 -88 297
-206 601 -441 80 -62 244 -203 247 -212 2 -5 -8 -5 -23 1 -14 5 -35 10 -46 10
-11 0 -66 35 -122 78 -144 111 -262 195 -460 329 -95 64 -203 140 -242 168
-167 123 -425 265 -575 317 -103 37 -216 66 -340 90 -135 25 -631 36 -885 19
-310 -21 -806 -92 -1145 -166 -63 -14 -135 -29 -160 -34 -138 -30 -203 -66
-249 -141 -20 -33 -38 -49 -58 -54 -102 -22 -197 -36 -256 -36 -77 0 -210 27
-202 41 4 5 0 6 -7 4 -8 -3 -31 1 -53 9 -40 14 -40 14 -14 24 14 6 52 13 85
17 56 6 138 26 334 82 47 13 166 42 265 63 99 22 197 45 218 51 39 10 94 21
342 65 342 61 623 97 900 118 250 19 660 19 810 1z m-32 -70 c278 -39 529
-119 695 -222 29 -18 55 -33 58 -33 3 0 39 -22 80 -50 41 -27 79 -50 84 -50 6
0 10 -4 10 -10 0 -20 -66 -9 -115 20 -27 16 -81 45 -120 66 -38 20 -72 40 -75
43 -4 6 -69 36 -165 76 -215 90 -500 134 -885 136 -96 0 -182 -2 -190 -4 -8
-3 -80 -8 -160 -12 -241 -10 -566 -50 -915 -113 -180 -33 -490 -102 -572 -128
-11 -4 -7 3 11 19 16 14 58 34 95 46 66 21 498 112 628 131 313 48 805 100
921 99 35 -1 66 2 70 6 11 12 421 -4 545 -20z m-629 -97 c-8 -29 -22 -106 -33
-171 -11 -64 -23 -122 -26 -127 -7 -12 -125 -14 -125 -2 0 4 7 31 14 60 13 49
32 209 20 170 -3 -10 -9 -18 -14 -18 -5 0 -9 -12 -9 -27 1 -16 -10 -68 -23
-118 l-23 -90 -45 -2 c-176 -10 -676 -47 -1105 -82 -126 -11 -231 -18 -233
-16 -5 5 49 114 84 171 39 62 31 59 299 113 309 63 602 105 905 132 171 15
165 14 163 33 0 11 4 15 13 12 7 -3 16 -1 19 4 4 6 34 10 69 10 l63 0 -13 -52z
m152 37 c19 -18 19 -26 2 -36 -10 -7 -10 -9 0 -9 9 0 10 -5 4 -17 -5 -10 -15
-52 -22 -93 -7 -41 -17 -79 -22 -84 -4 -6 -8 -24 -8 -40 0 -47 -10 -54 -80
-57 -59 -2 -65 0 -63 17 3 30 22 147 26 164 8 33 16 67 27 118 l12 52 55 0
c34 0 60 -5 69 -15z m431 -1 c-3 -3 -12 -4 -19 -1 -8 3 -5 6 6 6 11 1 17 -2
13 -5z m-894 -11 c-7 -2 -19 -2 -25 0 -7 3 -2 5 12 5 14 0 19 -2 13 -5z m970
0 c-7 -2 -21 -2 -30 0 -10 3 -4 5 12 5 17 0 24 -2 18 -5z m-86 -24 c173 -19
382 -65 461 -101 24 -10 76 -32 115 -48 97 -39 231 -116 214 -123 -8 -3 -104
-6 -213 -6 -230 -2 -778 -18 -908 -27 l-89 -6 6 53 c20 173 29 237 38 258 l10
24 134 -6 c74 -4 178 -12 232 -18z m-2097 -184 c0 -1 -8 -9 -17 -16 -11 -10
-14 -10 -9 -1 4 6 5 12 2 12 -14 0 -85 -140 -80 -157 4 -13 3 -14 -3 -5 -7 9
-13 1 -23 -29 -15 -46 -14 -45 -88 -53 l-52 -5 45 87 c62 120 89 150 150 166
42 11 75 11 75 1z m2815 -3 c-3 -3 -11 0 -18 7 -9 10 -8 11 6 5 10 -3 15 -9
12 -12z m152 -418 c-3 -3 -12 -4 -19 -1 -8 3 -5 6 6 6 11 1 17 -2 13 -5z m203
-93 c47 -11 110 -29 140 -40 l55 -21 -85 5 c-237 15 -454 25 -533 25 -128 0
-112 20 34 42 138 21 271 17 389 -11z m-3290 -126 c368 -13 1348 -61 1447 -71
84 -8 71 -23 -14 -18 -146 9 -494 25 -823 39 -190 8 -417 19 -505 25 -88 5
-226 13 -307 16 -91 4 -148 10 -148 16 0 7 34 8 98 4 53 -3 167 -8 252 -11z
m2839 -14 c7 -5 9 -11 4 -14 -13 -8 -53 3 -53 14 0 11 31 11 49 0z m-3559 -11
c113 -5 273 -12 355 -15 204 -7 1165 -53 1400 -66 105 -6 250 -13 323 -16 144
-6 143 -5 116 -68 -8 -20 -13 -39 -11 -42 3 -2 13 19 23 48 l19 52 145 -7 c80
-3 251 -13 380 -21 129 -8 465 -29 745 -46 627 -37 831 -52 840 -61 4 -3 1
-16 -5 -28 -10 -20 -16 -21 -63 -14 -138 20 -233 -6 -264 -71 -16 -34 -17 -34
-72 -30 -219 19 -846 63 -986 70 -66 3 -190 10 -275 16 -85 5 -231 14 -324 19
-106 6 -172 14 -176 21 -5 7 -10 8 -14 1 -6 -10 -60 -9 -341 8 -341 22 -1233
58 -1620 66 -337 8 -447 2 -438 -22 3 -8 0 -14 -6 -14 -7 0 -31 -9 -54 -20
-58 -29 -168 -42 -320 -38 l-127 3 52 41 c29 22 85 60 125 84 40 24 68 47 62
51 -9 5 14 26 51 42 8 4 35 20 60 36 53 35 78 36 400 21z m3925 0 c4 -6 -10
-10 -34 -10 -22 0 -43 5 -46 10 -4 6 10 10 34 10 22 0 43 -4 46 -10z m473 -47
c-10 -2 -28 -2 -40 0 -13 2 -5 4 17 4 22 1 32 -1 23 -4z m-1838 -18 c74 -4
284 -15 465 -25 182 -10 385 -22 452 -26 87 -4 126 -10 134 -20 10 -13 6 -14
-27 -10 -61 8 -176 15 -329 21 -77 3 -160 7 -185 10 -25 2 -90 7 -145 10 -55
3 -165 10 -245 15 -80 5 -211 12 -292 16 -92 4 -145 10 -142 16 4 6 41 8 93 4
47 -3 147 -8 221 -11z m1907 9 c-3 -3 -12 -4 -19 -1 -8 3 -5 6 6 6 11 1 17 -2
13 -5z m80 -10 c-3 -3 -12 -4 -19 -1 -8 3 -5 6 6 6 11 1 17 -2 13 -5z m496
-11 c-7 -2 -21 -2 -30 0 -10 3 -4 5 12 5 17 0 24 -2 18 -5z m105 -10 c-10 -2
-28 -2 -40 0 -13 2 -5 4 17 4 22 1 32 -1 23 -4z m65 -10 c-7 -2 -19 -2 -25 0
-7 3 -2 5 12 5 14 0 19 -2 13 -5z m100 -10 c-7 -2 -21 -2 -30 0 -10 3 -4 5 12
5 17 0 24 -2 18 -5z m144 -19 c-3 -3 -12 -4 -19 -1 -8 3 -5 6 6 6 11 1 17 -2
13 -5z m43 -10 c0 -2 -7 -4 -15 -4 -8 0 -15 4 -15 10 0 5 7 7 15 4 8 -4 15 -8
15 -10z m153 -21 c-7 -2 -19 -2 -25 0 -7 3 -2 5 12 5 14 0 19 -2 13 -5z
m-1683 -23 c24 -6 -2 -8 -81 -4 -63 3 -131 10 -150 15 -22 5 5 6 81 3 63 -3
131 -9 150 -14z m1828 10 c35 -6 96 -15 135 -20 40 -6 110 -17 157 -25 47 -9
150 -27 230 -41 206 -35 595 -122 735 -164 33 -10 94 -28 135 -40 133 -39 235
-71 255 -81 11 -5 70 -26 130 -48 177 -64 355 -145 355 -163 0 -15 -78 -8
-186 16 -121 27 -261 63 -272 70 -4 2 -41 11 -82 20 -41 9 -124 28 -185 42
-236 54 -286 64 -460 93 -447 73 -628 95 -1059 126 -182 14 -222 19 -233 33
-24 32 -16 41 35 37 26 -3 79 -7 117 -10 39 -4 124 -13 190 -20 66 -8 217 -23
335 -35 118 -12 280 -31 360 -42 193 -28 219 -30 260 -22 l35 6 -55 18 c-159
53 -362 113 -495 146 -33 8 -82 22 -108 29 -50 15 -204 44 -362 69 -49 7 -76
14 -60 15 17 0 58 -4 93 -9z m-1745 -17 c-7 -2 -21 -2 -30 0 -10 3 -4 5 12 5
17 0 24 -2 18 -5z m637 -81 c0 -5 -11 -37 -25 -72 -14 -35 -25 -72 -25 -81 0
-11 -6 -16 -17 -14 -10 2 -40 4 -68 4 l-50 1 0 47 c1 45 2 47 60 84 56 36 125
53 125 31z m205 -2 c354 -20 515 -36 515 -51 0 -15 60 -78 94 -98 44 -27 126
-47 272 -66 100 -13 141 -23 227 -59 65 -28 134 -49 183 -56 44 -6 124 -20
179 -32 55 -11 106 -20 113 -21 6 0 12 -10 12 -22 0 -12 9 -30 20 -40 14 -12
17 -22 11 -28 -15 -15 -524 -9 -758 8 -161 12 -199 18 -240 37 -46 22 -48 24
-46 63 2 22 3 50 4 61 1 19 6 21 38 18 71 -8 417 -34 436 -33 43 2 -46 19
-200 38 -288 37 -525 62 -970 102 -71 7 -132 13 -133 15 -8 6 53 174 63 174 6
0 87 -5 180 -10z m-4320 -75 c113 -14 223 -40 213 -50 -2 -2 -43 5 -90 16 -89
19 -362 30 -386 15 -8 -4 -10 -2 -6 8 11 28 99 31 269 11z m5085 -83 c152 -41
142 -50 -20 -17 -79 16 -140 38 -140 51 0 7 45 -2 160 -34z m-5363 13 c0 -8
-4 -15 -9 -15 -4 0 -8 7 -8 15 0 8 4 15 8 15 5 0 9 -7 9 -15z m2286 -59 c93
-9 176 -21 185 -26 13 -9 6 -10 -28 -6 -94 12 -367 36 -425 37 -50 1 -55 3
-30 9 35 10 68 8 298 -14z m-1933 5 c0 -13 -27 -21 -68 -20 l-37 1 40 13 c50
16 65 18 65 6z m1965 -141 c-11 -5 -42 -8 -70 -8 l-50 1 55 7 c79 10 88 10 65
0z m4086 -67 c14 -14 -75 -26 -122 -16 -31 6 -33 5 -20 -10 9 -12 10 -17 2
-17 -20 0 -61 32 -61 47 0 13 15 14 95 11 53 -3 100 -9 106 -15z m44 -39 c33
-8 64 -19 70 -25 5 -5 20 -9 33 -9 13 0 31 -4 41 -9 9 -5 55 -13 102 -17 46
-3 86 -10 89 -14 3 -4 32 -11 64 -15 33 -4 66 -9 74 -13 11 -4 13 -2 7 9 -7
11 -6 12 6 3 8 -7 29 -15 47 -19 18 -3 46 -13 62 -21 16 -9 51 -17 76 -19 26
-2 50 -8 53 -13 3 -5 24 -14 46 -20 111 -31 130 -37 136 -45 3 -5 10 -8 15 -7
5 0 29 -7 53 -16 32 -12 40 -19 30 -26 -11 -7 -9 -8 4 -4 11 3 33 0 50 -8 18
-8 40 -17 50 -20 21 -7 244 -31 378 -42 87 -6 120 -16 105 -31 -15 -15 -366
-2 -601 22 -198 21 -468 46 -550 51 -90 6 -117 12 -110 24 3 6 2 10 -4 10 -5
0 -11 -6 -14 -12 -3 -10 -13 -10 -52 0 -59 16 -186 76 -223 106 -15 12 -54 39
-87 60 -33 22 -54 41 -48 43 15 5 103 -45 103 -59 0 -5 4 -7 9 -3 6 3 13 -1
18 -8 4 -7 24 -22 43 -33 19 -10 39 -23 43 -29 4 -5 5 4 1 20 -7 29 -6 29 12
14 10 -9 29 -25 41 -35 17 -13 19 -20 10 -26 -9 -6 -9 -8 1 -8 7 0 15 6 18 14
3 8 14 12 27 8 25 -6 -2 21 -118 116 -38 31 -75 62 -82 68 -6 6 -32 17 -57 24
-25 7 -46 17 -46 21 0 12 6 11 75 -7z m193 9 c-10 -2 -26 -2 -35 0 -10 3 -2 5
17 5 19 0 27 -2 18 -5z m85 -10 c-13 -2 -33 -2 -45 0 -13 2 -3 4 22 4 25 0 35
-2 23 -4z m80 -10 c-7 -2 -21 -2 -30 0 -10 3 -4 5 12 5 17 0 24 -2 18 -5z
m-533 -38 c13 -16 3 -20 -24 -9 -9 3 -13 10 -10 15 8 13 20 11 34 -6z m260
-83 c-7 -3 -19 3 -28 13 -16 15 -15 16 12 4 15 -7 23 -15 16 -17z m577 22 c-3
-3 -12 -4 -19 -1 -8 3 -5 6 6 6 11 1 17 -2 13 -5z m768 -157 c7 -6 5 -8 -5 -4
-8 3 -39 13 -68 22 -29 9 -50 20 -47 25 6 9 102 -26 120 -43z m60 -27 c3 -6
-1 -7 -9 -4 -18 7 -21 14 -7 14 6 0 13 -4 16 -10z m1043 -45 c-3 -3 -9 2 -12
12 -6 14 -5 15 5 6 7 -7 10 -15 7 -18z m-1393 -55 c143 -11 274 -26 290 -32
128 -46 133 -45 -180 -13 -335 34 -355 37 -355 47 0 5 -4 7 -9 4 -5 -4 -33 0
-63 8 -58 15 -40 28 22 15 19 -4 152 -17 295 -29z m1459 9 c20 -12 36 -17 36
-12 0 4 4 3 8 -3 4 -5 18 -18 32 -27 13 -9 19 -17 12 -17 -15 0 -99 42 -127
64 -30 23 -2 19 39 -5z m-9277 -102 c8 3 26 0 39 -8 21 -11 27 -11 34 1 7 11
11 11 24 1 8 -7 20 -10 26 -6 12 7 82 -23 88 -37 2 -5 11 -8 20 -9 11 0 13 -2
4 -6 -7 -3 -18 -1 -25 4 -7 4 1 -4 18 -19 16 -14 27 -30 22 -34 -4 -4 -15 0
-25 10 -20 17 -108 46 -155 50 -15 2 -30 6 -34 9 -22 22 -199 -5 -245 -37 -27
-19 -38 -20 -38 -3 0 13 91 58 125 63 11 1 36 9 55 18 19 8 39 11 44 6 5 -5
15 -6 23 -3z m7067 -54 c19 -55 20 -80 1 -38 l-13 29 -11 -54 c-6 -30 -18
-102 -26 -160 -8 -58 -19 -125 -24 -150 -5 -25 -12 -65 -15 -90 l-5 -45 24 60
c27 68 32 57 10 -24 -14 -56 -49 -101 -58 -77 -3 7 -1 35 4 62 5 27 14 76 19
109 5 33 20 127 34 209 14 82 26 165 26 183 0 47 15 41 34 -14z m-6784 -43 c0
-5 -2 -10 -4 -10 -3 0 -8 5 -11 10 -3 6 -1 10 4 10 6 0 11 -4 11 -10z m5330
-10 c-19 -5 -45 -6 -57 -4 -11 3 -32 -1 -45 -9 -12 -8 -46 -17 -74 -20 -46 -5
-88 -24 -268 -119 -17 -9 -33 -14 -35 -12 -11 10 146 121 181 128 7 2 38 10
68 19 75 22 93 24 185 25 64 0 73 -2 45 -8z m83 -7 c-7 -2 -21 -2 -30 0 -10 3
-4 5 12 5 17 0 24 -2 18 -5z m-5561 -70 c31 -14 67 -36 79 -49 l23 -25 -19
-54 c-25 -74 -38 -70 -30 8 8 76 1 85 -95 117 -72 24 -175 24 -190 1 -4 -8
-11 -39 -14 -70 -8 -69 5 -114 79 -287 30 -70 53 -130 50 -133 -4 -3 -9 0 -14
7 -8 14 -89 115 -146 182 -59 70 -75 90 -75 94 0 2 -16 28 -35 56 -20 29 -33
55 -30 58 6 6 32 -27 93 -116 25 -37 55 -79 66 -93 12 -14 28 -36 36 -48 8
-11 18 -21 22 -21 14 0 8 32 -11 59 -49 68 -92 172 -98 235 -5 60 -4 65 18 77
79 43 196 44 291 2z m6935 -75 c-3 -8 -6 -5 -6 6 -1 11 2 17 5 13 3 -3 4 -12
1 -19z m-6810 -30 c-8 -37 -111 -297 -115 -293 -4 4 31 119 75 243 14 39 30
72 35 72 6 0 8 -10 5 -22z m5428 -3 c33 -8 97 -33 142 -55 l82 -40 -14 -39
c-17 -49 -44 -101 -52 -101 -3 0 -3 34 0 75 l7 76 -62 29 c-82 39 -154 53
-250 48 -95 -4 -104 -11 -113 -103 -9 -81 4 -120 101 -311 41 -81 73 -152 71
-158 -4 -12 -12 -4 -152 148 -55 60 -113 122 -130 140 -66 68 -134 154 -128
160 12 12 21 5 61 -46 22 -29 51 -64 64 -78 12 -14 54 -62 92 -107 41 -49 77
-83 88 -83 24 0 23 2 -14 58 -18 26 -39 59 -47 72 -8 14 -29 48 -47 77 -24 40
-33 69 -38 124 -5 42 -4 75 2 81 5 5 36 18 68 28 73 23 189 25 269 5z m1359
-78 c-11 -42 -20 -63 -22 -50 -2 12 4 42 12 68 9 25 16 53 17 63 0 11 2 12 6
4 3 -7 -3 -45 -13 -85z m-7306 23 c38 -46 26 -64 -20 -30 -16 12 -38 20 -48
17 -17 -4 -17 -2 -7 17 12 21 27 36 37 36 3 0 20 -18 38 -40z m636 -87 c61
-126 94 -309 81 -446 -6 -72 -8 -77 -30 -77 -13 0 -36 5 -52 11 -27 10 -27 11
-9 25 11 8 32 14 47 14 24 0 29 5 35 36 14 74 -18 288 -53 357 -16 31 -48 36
-94 12 -32 -17 -117 -127 -169 -219 -19 -33 -36 -54 -38 -48 -2 6 7 48 20 94
21 77 23 81 28 48 6 -35 7 -34 58 68 40 79 62 109 94 132 22 17 46 30 53 30 6
0 19 -17 29 -37z m5566 8 c0 -5 -13 -37 -29 -72 -109 -237 -141 -313 -141
-335 0 -13 3 -24 8 -24 4 0 30 36 57 80 92 147 105 161 169 191 41 18 65 24
73 17 6 -5 30 -47 52 -92 70 -143 104 -342 82 -475 -6 -35 -12 -65 -14 -67 -4
-5 -119 16 -131 23 -16 10 38 32 80 33 50 0 54 9 54 120 -1 136 -50 327 -91
353 -9 6 -39 7 -73 3 -72 -9 -103 -36 -231 -200 -49 -63 -96 -115 -103 -115
-8 -1 -12 3 -10 7 2 4 20 53 41 107 101 261 111 287 169 413 18 38 38 56 38
33z m-753 -35 c4 -8 23 -31 41 -51 19 -20 31 -39 27 -43 -3 -4 -30 6 -59 22
-65 35 -77 30 -129 -62 -62 -108 -113 -295 -90 -328 17 -24 112 -74 139 -74
24 1 169 25 259 44 86 18 108 19 103 5 -6 -17 -480 -289 -491 -282 -17 10 26
37 218 136 80 41 135 79 135 93 0 18 5 19 -128 -22 -119 -37 -171 -41 -234
-15 -27 10 -28 14 -28 76 0 161 75 366 173 472 43 46 52 51 64 29z m-5947 -40
l35 -29 -39 6 c-48 8 -57 16 -49 46 3 12 9 19 12 14 3 -4 22 -21 41 -37z m347
-18 c-3 -8 -6 -5 -6 6 -1 11 2 17 5 13 3 -3 4 -12 1 -19z m6192 -8 c10 0 12
-10 7 -42 -12 -73 -22 -79 -45 -25 -28 64 -27 81 2 73 12 -3 28 -6 36 -6z
m-5429 -85 c0 -8 5 -25 12 -38 22 -44 24 -53 17 -92 -4 -22 -5 -43 -2 -47 2
-5 2 -8 -1 -8 -2 0 -11 -2 -19 -6 -10 -3 -16 5 -20 28 -4 18 -9 43 -13 56 -5
17 -2 22 12 22 12 0 15 3 8 8 -16 10 -26 49 -19 72 7 23 25 27 25 5z m8155
-177 c-13 -206 -16 -244 -26 -269 l-10 -27 -52 21 c-29 11 -61 23 -72 28 -11
4 -40 14 -65 23 -141 47 -175 62 -175 76 0 8 43 38 100 69 55 29 143 80 195
112 52 32 99 58 103 58 5 1 6 -41 2 -91z m-8832 12 c26 0 94 11 149 25 145 37
145 27 0 -70 -123 -82 -138 -92 -191 -132 -46 -34 -61 -40 -61 -23 0 6 39 36
88 66 141 91 162 106 162 120 0 18 7 19 -99 -20 -92 -34 -93 -34 -137 -18 -43
16 -44 17 -44 62 0 26 2 49 5 52 3 3 22 -10 42 -28 31 -29 44 -34 86 -34z
m631 -35 c8 -25 11 -45 6 -45 -10 0 -27 44 -35 90 -8 46 10 18 29 -45z m-268
19 c1 -17 -3 -20 -21 -16 -13 2 -25 12 -28 21 -3 14 2 18 22 17 19 -1 26 -7
27 -22z m1849 12 c163 -11 177 -13 153 -26 -23 -11 -49 -11 -155 -1 -71 7
-159 19 -198 26 -63 12 -66 13 -25 13 25 0 126 -5 225 -12z m4162 -18 c32 -91
41 -110 46 -97 3 8 3 -6 0 -31 -3 -25 -10 -50 -15 -57 -6 -7 -4 -13 4 -16 10
-4 10 -8 -2 -16 -25 -18 -50 -13 -50 10 0 11 -4 18 -8 15 -17 -10 -35 14 -36
50 -1 37 1 39 34 45 19 4 25 7 14 8 -16 1 -23 9 -27 37 -6 36 6 84 20 84 5 0
13 -15 20 -32z m-3632 -18 c88 -6 171 -12 185 -15 14 -2 120 -11 235 -20 573
-42 1035 -82 1044 -91 15 -15 -903 31 -1229 61 -281 26 -384 35 -467 42 -54 4
-83 10 -83 18 0 23 15 26 85 21 38 -4 142 -11 230 -16z m-2029 -25 c13 -13 13
-15 1 -15 -8 0 -20 7 -27 15 -9 11 -10 15 -1 15 7 0 19 -7 27 -15z m-430 -72
c11 -102 46 -428 50 -478 3 -40 2 -55 -4 -45 -9 13 -17 84 -38 314 -7 79 -12
98 -25 90 -5 -3 -9 -58 -9 -122 0 -95 -5 -129 -23 -181 -26 -75 -44 -91 -81
-72 -14 8 -23 17 -21 21 3 4 -4 10 -15 13 -11 3 -20 13 -20 22 0 9 -4 14 -8
11 -4 -2 -14 0 -22 6 -12 8 -11 9 4 4 15 -5 13 0 -8 21 -35 35 -90 113 -79
113 4 0 19 -16 32 -35 30 -44 102 -115 117 -115 12 0 57 47 72 76 15 29 35
190 29 230 -3 19 -2 32 3 29 4 -3 11 19 15 47 11 92 24 112 31 51z m242 -8
c177 -42 232 -58 239 -68 9 -16 -77 -1 -161 27 -40 14 -85 26 -101 28 -55 6
-36 -21 42 -61 80 -40 116 -71 148 -127 18 -32 18 -32 -15 -90 -28 -50 -153
-188 -164 -181 -8 4 -96 -36 -96 -45 0 -4 -13 -8 -29 -8 -34 0 -37 7 -45 95
l-6 60 27 -57 c22 -50 30 -58 54 -58 15 0 46 10 70 23 51 27 156 121 164 148
12 38 -6 37 -42 -1 -19 -22 -42 -40 -50 -40 -17 0 -83 51 -83 65 0 6 21 9 48
7 66 -5 123 19 115 47 -3 12 -9 21 -13 21 -4 0 -13 13 -20 29 -11 27 -41 54
-156 141 -25 19 -56 43 -68 52 l-21 17 28 1 c15 0 76 -11 135 -25z m5767 -80
c27 -75 27 -108 -1 -70 -14 19 -28 60 -40 125 -12 57 11 26 41 -55z m-6311 23
c-4 -7 -18 -27 -31 -45 -17 -23 -22 -40 -17 -58 10 -42 -3 -28 -19 20 l-16 45
32 25 c34 26 63 34 51 13z m5958 -7 c18 10 20 9 14 -6 -3 -10 -1 -25 6 -33 11
-14 10 -15 -7 -7 -11 4 -31 8 -45 7 -20 -1 -25 4 -26 23 -2 21 1 23 17 14 13
-7 26 -6 41 2z m-5503 -131 c1 -49 -12 -71 -31 -52 -11 11 -13 106 -2 124 13
20 31 -20 33 -72z m5961 59 c0 -4 6 -6 14 -3 7 3 16 -1 19 -9 4 -11 -4 -16
-28 -19 -19 -2 -32 -2 -30 1 3 2 0 10 -6 17 -6 7 -8 18 -5 23 7 11 36 3 36
-10z m1105 -39 c26 -11 -75 -12 -276 -3 -104 5 -143 10 -119 14 44 9 367 0
395 -11z m-1638 -191 c12 -96 29 -226 38 -289 9 -63 17 -125 19 -137 3 -25 -9
-31 -17 -10 -3 8 -12 74 -21 148 -9 74 -21 169 -26 212 -5 43 -13 83 -16 89
-16 26 -25 -21 -33 -168 -7 -139 -11 -165 -32 -204 -13 -25 -28 -48 -33 -52
-15 -10 -124 49 -192 104 -68 55 -91 82 -162 189 -27 42 -64 137 -57 149 5 8
93 60 101 60 15 0 -2 -34 -31 -64 -20 -21 -35 -47 -35 -60 0 -53 130 -219 224
-288 54 -39 77 -36 120 13 44 52 50 73 71 229 28 217 36 261 48 257 7 -2 21
-74 34 -178z m-5891 104 c-5 -5 -36 50 -36 64 0 4 9 -7 21 -26 11 -18 18 -35
15 -38z m6114 43 c153 -35 404 -86 423 -86 4 0 7 -6 7 -13 0 -16 -102 2 -289
48 -98 25 -131 26 -131 7 0 -4 48 -30 108 -57 128 -58 162 -81 202 -140 l31
-45 -20 -38 c-11 -21 -52 -69 -93 -107 -94 -90 -213 -151 -309 -161 -64 -6
-66 -5 -72 17 -12 50 -19 119 -12 119 10 0 35 -27 35 -39 0 -6 8 -27 17 -47
17 -35 19 -36 61 -30 109 15 312 154 312 215 0 14 -13 54 -29 87 -26 55 -37
67 -112 116 -106 69 -148 94 -179 110 -14 7 -31 18 -37 24 -7 7 -18 14 -25 16
-20 7 2 28 25 23 12 -2 51 -11 87 -19z m-3970 -7 l255 -11 66 -67 c36 -37 91
-82 123 -100 31 -18 56 -35 54 -36 -2 -2 -172 -8 -378 -14 -610 -17 -716 -21
-895 -32 -93 -6 -182 -12 -197 -13 -26 -3 -26 -3 -10 23 8 14 21 33 28 41 14
17 88 163 104 205 l11 28 292 -7 c161 -3 407 -11 547 -17z m3022 -89 c8 -46
33 -120 75 -222 12 -32 23 -61 23 -66 0 -11 -4 -11 -685 28 -207 12 -311 18
-475 25 -163 7 -436 31 -580 50 -63 9 -168 21 -232 27 -65 6 -118 15 -118 19
0 4 15 11 33 14 57 13 158 69 218 122 l25 23 220 -10 c532 -25 1027 -51 1124
-60 58 -5 154 -14 214 -20 60 -6 111 -8 114 -5 3 3 -4 5 -15 5 -15 0 -23 12
-35 55 -8 30 -13 57 -9 60 3 3 26 5 50 3 46 -3 46 -3 53 -48z m1137 -124 c10
-12 5 -19 -26 -39 -38 -25 -57 -27 -35 -5 7 7 12 22 12 35 0 27 30 32 49 9z
m1228 -97 c58 -56 164 -131 224 -159 l44 -21 -375 6 c-365 7 -459 10 -467 19
-2 2 18 48 46 102 l51 99 214 0 215 0 48 -46z m-7262 31 c13 -6 15 -9 5 -9 -8
0 -22 4 -30 9 -18 12 -2 12 25 0z m6091 -12 c14 -46 -132 -137 -224 -139 -31
-1 -58 4 -68 12 -17 14 -44 69 -44 88 0 5 33 7 79 4 63 -5 93 -1 149 16 39 12
74 26 77 31 10 16 23 11 31 -12z m-41 -239 c-4 -5 -12 -9 -19 -9 -8 0 -19 -7
-26 -15 -15 -18 -131 -75 -154 -75 -10 0 -24 -7 -32 -15 -19 -18 -53 -19 -76
-1 -23 17 -13 26 27 26 40 0 195 48 195 61 0 5 6 9 13 9 8 0 24 9 37 20 22 19
46 18 35 -1z"/>
<path d="M4027 4811 c-3 -14 -1 -18 9 -14 8 3 14 11 14 19 0 21 -17 17 -23 -5z"/>
<path d="M1443 3863 c9 -2 23 -2 30 0 6 3 -1 5 -18 5 -16 0 -22 -2 -12 -5z"/>
<path d="M1515 3850 c28 -12 67 -12 60 0 -3 6 -23 10 -43 9 -30 0 -33 -2 -17
-9z"/>
<path d="M1610 3840 c8 -5 26 -9 40 -9 l25 1 -25 8 c-14 4 -32 8 -40 9 -13 1
-13 0 0 -9z"/>
<path d="M7808 3383 c12 -2 30 -2 40 0 9 3 -1 5 -23 4 -22 0 -30 -2 -17 -4z"/>
<path d="M8715 3165 c16 -13 32 -21 35 -18 3 3 -1 8 -7 10 -7 3 -13 9 -13 14
0 4 8 6 18 2 9 -3 14 -3 11 1 -4 4 -22 9 -40 11 l-34 4 30 -24z"/>
<path d="M8830 3126 c0 -2 7 -7 16 -10 8 -3 12 -2 9 4 -6 10 -25 14 -25 6z"/>
<path d="M2000 2750 c0 -5 5 -10 10 -10 6 0 10 5 10 10 0 6 -4 10 -10 10 -5 0
-10 -4 -10 -10z"/>
<path d="M6628 4853 c6 -2 18 -2 25 0 6 3 1 5 -13 5 -14 0 -19 -2 -12 -5z"/>
<path d="M6678 4843 c6 -2 18 -2 25 0 6 3 1 5 -13 5 -14 0 -19 -2 -12 -5z"/>
<path d="M6728 4833 c6 -2 18 -2 25 0 6 3 1 5 -13 5 -14 0 -19 -2 -12 -5z"/>
<path d="M6830 4810 c8 -5 22 -10 30 -10 13 0 13 1 0 10 -8 5 -22 10 -30 10
-13 0 -13 -1 0 -10z"/>
<path d="M7010 4760 c36 -11 70 -19 75 -19 21 1 -91 37 -115 38 -14 0 4 -9 40
-19z"/>
<path d="M7139 4720 c24 -11 46 -19 48 -16 5 5 -62 36 -79 36 -7 0 7 -9 31
-20z"/>
<path d="M7210 4691 c8 -5 26 -12 40 -15 l25 -7 -25 15 c-14 9 -32 15 -40 15
-13 0 -13 -1 0 -8z"/>
<path d="M7340 4643 c95 -47 154 -73 158 -69 5 5 -134 71 -168 80 -17 4 -13 0
10 -11z"/>
<path d="M7510 4566 c0 -7 112 -57 117 -52 3 3 -102 56 -112 56 -3 0 -5 -2 -5
-4z"/>
<path d="M1875 4490 c-3 -5 -1 -10 4 -10 6 0 11 5 11 10 0 6 -2 10 -4 10 -3 0
-8 -4 -11 -10z"/>
<path d="M7692 4474 c10 -10 20 -16 22 -13 3 3 -5 11 -17 18 -21 13 -21 12 -5
-5z"/>
<path d="M7755 4442 c17 -9 44 -24 60 -32 17 -8 32 -18 35 -21 3 -3 41 -25 84
-48 44 -24 98 -54 120 -67 l41 -25 -29 24 c-16 14 -67 46 -115 72 -47 26 -113
62 -146 81 -61 34 -105 49 -50 16z"/>
<path d="M1809 4433 c-8 -9 -54 -50 -104 -91 -204 -167 -315 -268 -315 -284 0
-15 8 -18 48 -17 27 1 36 4 22 6 -14 3 -29 8 -33 12 -4 4 52 61 125 126 189
168 290 265 275 265 -2 0 -11 -8 -18 -17z"/>
<path d="M8135 4226 c22 -13 55 -34 74 -46 20 -12 29 -15 22 -6 -13 16 -115
76 -128 76 -5 0 10 -11 32 -24z"/>
<path d="M8270 4146 c0 -3 9 -10 20 -16 11 -6 20 -8 20 -6 0 3 -9 10 -20 16
-11 6 -20 8 -20 6z"/>
<path d="M8320 4115 c0 -2 15 -12 33 -20 l32 -16 -25 20 c-24 20 -40 26 -40
16z"/>
<path d="M8390 4074 c0 -6 111 -76 115 -72 2 2 -23 20 -56 40 -32 21 -59 35
-59 32z"/>
<path d="M10218 3593 c7 -3 16 -2 19 1 4 3 -2 6 -13 5 -11 0 -14 -3 -6 -6z"/>
<path d="M10308 3573 c7 -3 16 -2 19 1 4 3 -2 6 -13 5 -11 0 -14 -3 -6 -6z"/>
<path d="M10458 3523 c7 -3 16 -2 19 1 4 3 -2 6 -13 5 -11 0 -14 -3 -6 -6z"/>
<path d="M10525 3500 c3 -5 20 -12 38 -15 17 -4 37 -11 42 -15 6 -5 54 -26
108 -47 54 -22 94 -43 90 -48 -4 -4 -2 -5 4 -1 7 4 67 -24 139 -64 70 -39 129
-69 131 -66 5 4 -92 65 -110 69 -7 1 -14 4 -17 7 -21 24 -310 155 -310 142 0
-4 -4 -2 -8 4 -8 14 -115 47 -107 34z"/>
<path d="M11095 3220 c-3 -5 -1 -10 4 -10 6 0 11 5 11 10 0 6 -2 10 -4 10 -3
0 -8 -4 -11 -10z"/>
</g>
</svg>
